<mxfile host="app.diagrams.net" agent="Mozilla/5.0 (Windows NT 10.0; Win64; x64; rv:136.0) Gecko/20100101 Firefox/136.0" version="26.1.1">
  <diagram name="Page-1" id="03018318-947c-dd8e-b7a3-06fadd420f32">
    <mxGraphModel dx="2013" dy="1334" grid="1" gridSize="10" guides="1" tooltips="1" connect="1" arrows="1" fold="1" page="1" pageScale="1" pageWidth="1100" pageHeight="850" background="#ffffff" math="0" shadow="0">
      <root>
        <mxCell id="0" />
        <mxCell id="1" parent="0" />
        <mxCell id="MiC8FaawFKK_ar2keSqU-50" value="" style="rounded=0;whiteSpace=wrap;html=1;sketch=1;curveFitting=1;jiggle=2;" vertex="1" parent="1">
          <mxGeometry x="270" y="-10" width="600" height="450" as="geometry" />
        </mxCell>
        <mxCell id="677b7b8949515195-9" value="" style="line;strokeWidth=1;html=1;rounded=0;shadow=0;labelBackgroundColor=none;fillColor=none;fontFamily=Verdana;fontSize=14;fontColor=#000000;align=center;comic=1;sketch=1;curveFitting=1;jiggle=2;" parent="1" vertex="1">
          <mxGeometry x="-20" y="-50" width="1060" height="10" as="geometry" />
        </mxCell>
        <mxCell id="677b7b8949515195-10" value="" style="whiteSpace=wrap;html=1;rounded=0;shadow=0;labelBackgroundColor=none;strokeWidth=1;fillColor=none;fontFamily=Verdana;fontSize=12;align=center;comic=1;sketch=1;curveFitting=1;jiggle=2;" parent="1" vertex="1">
          <mxGeometry y="-110" width="1040" height="50" as="geometry" />
        </mxCell>
        <mxCell id="677b7b8949515195-26" value="FOOTER" style="whiteSpace=wrap;html=1;rounded=0;shadow=0;labelBackgroundColor=none;strokeWidth=1;fillColor=none;fontFamily=Verdana;fontSize=12;align=center;comic=1;sketch=1;curveFitting=1;jiggle=2;" parent="1" vertex="1">
          <mxGeometry x="20" y="480" width="1040" height="180" as="geometry" />
        </mxCell>
        <mxCell id="MiC8FaawFKK_ar2keSqU-3" value="HOME" style="ellipse;whiteSpace=wrap;html=1;sketch=1;curveFitting=1;jiggle=2;" vertex="1" parent="1">
          <mxGeometry x="260" y="-100" width="130" height="30" as="geometry" />
        </mxCell>
        <mxCell id="MiC8FaawFKK_ar2keSqU-4" value="AUTORI" style="ellipse;whiteSpace=wrap;html=1;fillColor=#e1d5e7;strokeColor=#9673a6;sketch=1;curveFitting=1;jiggle=2;" vertex="1" parent="1">
          <mxGeometry x="670" y="-100" width="130" height="30" as="geometry" />
        </mxCell>
        <mxCell id="MiC8FaawFKK_ar2keSqU-5" value="CATALOGO" style="ellipse;whiteSpace=wrap;html=1;labelBorderColor=none;labelBackgroundColor=none;sketch=1;curveFitting=1;jiggle=2;" vertex="1" parent="1">
          <mxGeometry x="400" y="-100" width="130" height="30" as="geometry" />
        </mxCell>
        <mxCell id="MiC8FaawFKK_ar2keSqU-6" value="LOGIN" style="ellipse;whiteSpace=wrap;html=1;sketch=1;curveFitting=1;jiggle=2;" vertex="1" parent="1">
          <mxGeometry x="540" y="-100" width="130" height="30" as="geometry" />
        </mxCell>
        <mxCell id="MiC8FaawFKK_ar2keSqU-18" value="WEB-PAGE" style="swimlane;whiteSpace=wrap;html=1;startSize=60;sketch=1;curveFitting=1;jiggle=2;" vertex="1" parent="1">
          <mxGeometry y="-510" width="1030" height="400" as="geometry" />
        </mxCell>
        <mxCell id="677b7b8949515195-2" value="logo img" style="whiteSpace=wrap;html=1;rounded=0;shadow=0;labelBackgroundColor=none;strokeWidth=1;fontFamily=Verdana;fontSize=28;align=center;comic=1;sketch=1;curveFitting=1;jiggle=2;" parent="MiC8FaawFKK_ar2keSqU-18" vertex="1">
          <mxGeometry x="450" y="170" width="190" height="30" as="geometry" />
        </mxCell>
        <mxCell id="MiC8FaawFKK_ar2keSqU-94" value="&lt;div&gt;&lt;br&gt;&lt;/div&gt;&lt;div&gt;&lt;span&gt;&lt;br&gt;&lt;/span&gt;&lt;/div&gt;&lt;div&gt;&lt;br&gt;&lt;/div&gt;&lt;div&gt;&lt;span style=&quot;color: rgba(0, 0, 0, 0);&quot;&gt;&lt;br&gt;&lt;/span&gt;&lt;/div&gt;&lt;div&gt;&lt;span style=&quot;color: rgba(0, 0, 0, 0);&quot;&gt;editore&lt;/span&gt;&lt;/div&gt;" style="html=1;whiteSpace=wrap;sketch=1;curveFitting=1;jiggle=2;fillColor=default;labelBackgroundColor=none;labelBorderColor=none;textShadow=0;" vertex="1" parent="1">
          <mxGeometry x="760" y="-80" width="110" height="80" as="geometry" />
        </mxCell>
        <mxCell id="MiC8FaawFKK_ar2keSqU-96" value="" style="line;strokeWidth=1;fillColor=none;align=left;verticalAlign=middle;spacingTop=-1;spacingLeft=3;spacingRight=3;rotatable=0;labelPosition=right;points=[];portConstraint=eastwest;strokeColor=inherit;sketch=1;curveFitting=1;jiggle=2;" vertex="1" parent="1">
          <mxGeometry x="760" y="-58" width="110" height="8" as="geometry" />
        </mxCell>
        <mxCell id="MiC8FaawFKK_ar2keSqU-97" value="" style="line;strokeWidth=1;fillColor=none;align=left;verticalAlign=middle;spacingTop=-1;spacingLeft=3;spacingRight=3;rotatable=0;labelPosition=right;points=[];portConstraint=eastwest;strokeColor=inherit;sketch=1;curveFitting=1;jiggle=2;" vertex="1" parent="1">
          <mxGeometry x="770" y="-45" width="110" as="geometry" />
        </mxCell>
        <mxCell id="MiC8FaawFKK_ar2keSqU-98" value="" style="line;strokeWidth=1;fillColor=none;align=left;verticalAlign=middle;spacingTop=-1;spacingLeft=3;spacingRight=3;rotatable=0;labelPosition=right;points=[];portConstraint=eastwest;strokeColor=inherit;sketch=1;curveFitting=1;jiggle=2;" vertex="1" parent="1">
          <mxGeometry x="760" y="-30" width="110" height="8" as="geometry" />
        </mxCell>
        <mxCell id="MiC8FaawFKK_ar2keSqU-100" value="EDITORE" style="text;html=1;align=center;verticalAlign=middle;whiteSpace=wrap;rounded=0;fontFamily=Architects Daughter;fontSource=https%3A%2F%2Ffonts.googleapis.com%2Fcss%3Ffamily%3DArchitects%2BDaughter;labelBackgroundColor=#9AC7BF;labelBorderColor=none;fontColor=#FF1725;" vertex="1" parent="1">
          <mxGeometry x="770" y="-30" width="85" height="30" as="geometry" />
        </mxCell>
        <mxCell id="MiC8FaawFKK_ar2keSqU-101" value="creatore" style="text;html=1;align=center;verticalAlign=middle;whiteSpace=wrap;rounded=0;fontFamily=Architects Daughter;fontSource=https%3A%2F%2Ffonts.googleapis.com%2Fcss%3Ffamily%3DArchitects%2BDaughter;" vertex="1" parent="1">
          <mxGeometry x="785" y="-80" width="60" height="30" as="geometry" />
        </mxCell>
        <mxCell id="MiC8FaawFKK_ar2keSqU-102" value="illustratore" style="text;html=1;align=center;verticalAlign=middle;whiteSpace=wrap;rounded=0;fontFamily=Architects Daughter;fontSource=https%3A%2F%2Ffonts.googleapis.com%2Fcss%3Ffamily%3DArchitects%2BDaughter;" vertex="1" parent="1">
          <mxGeometry x="772.5" y="-55" width="60" height="30" as="geometry" />
        </mxCell>
        <mxCell id="MiC8FaawFKK_ar2keSqU-104" value="" style="rounded=1;whiteSpace=wrap;html=1;sketch=1;hachureGap=4;jiggle=2;curveFitting=1;fontFamily=Architects Daughter;fontSource=https%3A%2F%2Ffonts.googleapis.com%2Fcss%3Ffamily%3DArchitects%2BDaughter;" vertex="1" parent="1">
          <mxGeometry x="520" y="30" width="280" height="250" as="geometry" />
        </mxCell>
        <mxCell id="MiC8FaawFKK_ar2keSqU-105" value="&lt;div&gt;Larry ORTOLANI&lt;/div&gt;&lt;div&gt;&lt;br&gt;&lt;/div&gt;&lt;div&gt;Biografia, e metodi di lavoro.&lt;/div&gt;" style="text;html=1;whiteSpace=wrap;overflow=hidden;rounded=0;fontFamily=Architects Daughter;fontSource=https%3A%2F%2Ffonts.googleapis.com%2Fcss%3Ffamily%3DArchitects%2BDaughter;" vertex="1" parent="1">
          <mxGeometry x="540" y="50" width="180" height="120" as="geometry" />
        </mxCell>
        <mxCell id="MiC8FaawFKK_ar2keSqU-106" style="edgeStyle=orthogonalEdgeStyle;rounded=0;sketch=1;hachureGap=4;jiggle=2;curveFitting=1;orthogonalLoop=1;jettySize=auto;html=1;exitX=0.25;exitY=0;exitDx=0;exitDy=0;entryX=0.5;entryY=0;entryDx=0;entryDy=0;fontFamily=Architects Daughter;fontSource=https%3A%2F%2Ffonts.googleapis.com%2Fcss%3Ffamily%3DArchitects%2BDaughter;" edge="1" parent="1" source="MiC8FaawFKK_ar2keSqU-102" target="MiC8FaawFKK_ar2keSqU-102">
          <mxGeometry relative="1" as="geometry" />
        </mxCell>
        <mxCell id="MiC8FaawFKK_ar2keSqU-107" value="IMG copertina &quot;il mitico&quot;" style="whiteSpace=wrap;html=1;aspect=fixed;sketch=1;hachureGap=4;jiggle=2;curveFitting=1;fontFamily=Architects Daughter;fontSource=https%3A%2F%2Ffonts.googleapis.com%2Fcss%3Ffamily%3DArchitects%2BDaughter;" vertex="1" parent="1">
          <mxGeometry x="310" y="90" width="190" height="190" as="geometry" />
        </mxCell>
      </root>
    </mxGraphModel>
  </diagram>
</mxfile>
